<?xml version="1.0" standalone="no"?>
<!DOCTYPE svg PUBLIC "-//W3C//DTD SVG 20010904//EN"
 "http://www.w3.org/TR/2001/REC-SVG-20010904/DTD/svg10.dtd">
<svg version="1.0" xmlns="http://www.w3.org/2000/svg"
 width="700.000000pt" height="700.000000pt" viewBox="0 0 700.000000 700.000000"
 preserveAspectRatio="xMidYMid meet">
<metadata>
Created by potrace 1.14, written by Peter Selinger 2001-2017
</metadata>
<g transform="translate(0.000000,700.000000) scale(0.100000,-0.100000)"
fill="#000000" stroke="none">
<path d="M3852 6433 c-56 -31 -427 -515 -623 -813 -66 -100 -91 -139 -144
-228 -98 -163 -212 -412 -252 -552 -27 -94 -39 -282 -22 -375 16 -97 20 -111
45 -190 129 -398 489 -703 899 -763 67 -9 256 -9 330 1 398 53 765 359 895
747 59 174 73 408 35 555 -36 137 -128 344 -250 559 -53 95 -232 369 -294 452
-9 12 -23 32 -31 44 -34 50 -257 344 -285 376 -5 6 -23 28 -40 50 -66 83 -99
120 -124 136 -33 23 -97 23 -139 1z m91 -375 c8 -13 25 -34 37 -48 49 -55 283
-373 367 -500 217 -326 339 -562 392 -763 21 -78 22 -221 2 -307 -66 -285
-250 -495 -536 -611 -94 -39 -305 -56 -428 -36 -234 38 -452 188 -579 398 -78
129 -128 331 -114 463 6 59 50 221 66 241 4 6 11 21 15 35 14 47 107 225 178
343 40 65 77 127 83 138 64 114 473 667 495 669 4 0 13 -10 22 -22z"/>
<path d="M3445 4751 c-11 -5 -33 -23 -50 -41 -26 -27 -30 -40 -32 -88 -2 -89
15 -160 58 -248 86 -176 259 -294 454 -311 78 -6 111 5 154 50 31 34 39 102
17 149 -20 41 -80 78 -128 78 -130 0 -255 108 -273 236 -3 21 -8 55 -11 75 -8
56 -60 101 -121 105 -26 2 -57 0 -68 -5z"/>
<path d="M6130 3358 c-122 -16 -127 -18 -635 -333 -176 -109 -340 -210 -363
-224 -68 -40 -77 -46 -417 -256 -176 -109 -329 -202 -341 -207 -17 -8 -48 3
-168 61 -80 39 -343 154 -584 257 -472 201 -833 355 -897 384 -211 94 -384
145 -575 169 -71 9 -403 8 -445 -2 -18 -4 -60 -12 -125 -24 -57 -10 -231 -64
-310 -96 -161 -66 -885 -369 -917 -384 -92 -43 -98 -179 -10 -236 44 -29 108
-31 162 -4 17 8 233 99 480 202 431 179 587 236 685 250 25 4 65 11 90 15 48
10 358 6 400 -4 14 -3 41 -9 60 -12 112 -20 263 -71 430 -147 75 -34 285 -124
600 -257 807 -342 987 -426 1037 -483 74 -84 69 -205 -11 -282 -78 -75 -131
-78 -341 -15 -77 23 -149 44 -160 47 -11 3 -132 39 -270 80 -137 41 -259 77
-270 80 -11 3 -69 20 -130 38 -464 140 -480 143 -536 89 -56 -54 -62 -135 -13
-193 28 -34 36 -36 434 -154 47 -14 146 -44 220 -66 731 -218 818 -242 898
-246 133 -6 260 41 352 128 62 59 78 81 111 151 55 118 62 255 18 371 -11 30
-19 60 -17 65 3 8 151 102 633 397 94 57 323 199 510 315 187 116 359 219 383
230 126 57 294 -22 332 -155 12 -46 9 -124 -8 -168 -20 -50 -69 -93 -390 -336
-180 -136 -385 -292 -457 -346 -71 -55 -224 -171 -340 -258 -115 -87 -291
-220 -390 -295 -902 -685 -861 -661 -1080 -658 -95 1 -133 10 -320 79 -55 20
-118 42 -140 50 -22 7 -105 36 -185 65 -80 29 -158 56 -175 61 -16 5 -39 13
-50 18 -11 5 -126 46 -255 91 -129 45 -244 86 -255 91 -11 4 -92 33 -180 64
-88 31 -196 69 -240 85 -184 67 -309 89 -475 85 -134 -3 -187 -11 -315 -48
-69 -19 -192 -73 -237 -102 -21 -14 -40 -25 -43 -25 -6 0 -11 -3 -380 -275
-198 -145 -203 -149 -220 -178 -38 -63 -8 -159 59 -191 64 -30 108 -19 201 50
471 353 583 423 745 465 103 26 263 32 370 13 60 -10 473 -148 555 -184 18 -8
187 -68 210 -74 6 -2 17 -6 25 -9 15 -7 139 -51 370 -131 69 -25 177 -63 240
-86 63 -22 165 -58 225 -80 61 -21 137 -48 170 -60 179 -63 368 -74 530 -31
75 20 220 85 261 117 27 21 185 140 449 340 127 96 376 285 555 420 179 136
406 308 505 383 99 75 185 139 190 144 6 4 138 105 295 223 294 222 350 273
401 361 88 153 86 372 -5 526 -36 62 -120 147 -179 181 -100 59 -232 88 -337
74z"/>
</g>
</svg>
